<svg width="495" height="547" viewBox="0 0 495 547" fill="none" xmlns="http://www.w3.org/2000/svg">
<path d="M460.531 316.082C426.856 296.771 400.315 309.153 392.567 311.88C370.288 319.674 338.711 305.593 338.711 273.452L338.453 273.869V273.067L338.679 273.452C338.679 241.311 370.256 227.23 392.534 235.024C400.283 237.751 426.823 250.132 460.499 230.822C490.461 213.629 506.056 171.417 485.877 136.71C465.697 101.971 421.108 94.3048 391.146 111.498C357.47 130.808 355.016 159.837 353.499 167.856C349.14 190.919 321.083 211.031 293.057 194.993H292.993C265.064 178.89 268.551 144.729 286.471 129.461C292.702 124.136 316.788 107.52 316.788 68.9003C316.788 34.5464 287.794 0 247.435 0C207.076 0 178.082 34.5464 178.082 68.9003C178.082 107.552 202.136 124.168 208.4 129.461C226.32 144.729 229.839 178.923 201.846 195.025H201.91H201.878C173.853 211.095 145.827 190.983 141.469 167.92C139.951 159.901 137.497 130.872 103.822 111.562C73.8592 94.369 29.2706 102.067 9.09104 136.774C-11.0885 171.513 4.50626 213.693 34.4688 230.886C68.1444 250.196 94.6845 237.815 102.433 235.088C124.712 227.294 156.289 241.375 156.289 273.516L156.547 273.099V273.901L156.321 273.516C156.321 305.657 124.744 319.738 102.466 311.944C94.7168 309.217 68.1767 296.836 34.5011 316.146C4.53854 333.339 -11.0562 375.551 9.12333 410.258C29.3028 444.965 73.8915 452.663 103.854 435.47C137.53 416.16 139.984 387.131 141.501 379.112C145.86 356.049 173.917 335.937 201.943 351.975H201.975C229.968 368.045 226.481 402.239 208.529 417.539C202.298 422.864 178.212 439.48 178.212 478.1C178.212 512.454 207.206 547 247.565 547C287.924 547 316.918 512.454 316.918 478.1C316.918 439.448 292.864 422.832 286.6 417.539C268.68 402.271 265.161 368.077 293.154 351.975C321.147 335.937 349.205 356.017 353.531 379.08C355.049 387.099 357.503 416.128 391.178 435.438C421.141 452.631 465.729 444.933 485.909 410.226C506.089 375.519 490.494 333.307 460.531 316.114V316.082ZM247.5 320.059C221.606 320.059 200.619 299.209 200.619 273.484C200.619 247.759 221.606 226.909 247.5 226.909C273.394 226.909 294.381 247.759 294.381 273.484C294.381 299.209 273.394 320.059 247.5 320.059Z" fill="black"/>
</svg>
