<svg width="247" height="157" viewBox="0 0 247 157" fill="none" xmlns="http://www.w3.org/2000/svg">
<path d="M106.99 0H131.55V56.89H131.98C133.7 54.16 145.91 39.44 165.16 39.44C185.63 39.44 195.33 51.4 199.64 56.79C203.95 62.18 212.57 76.1 212.57 98.7C212.57 130.08 193.16 156.88 165.37 156.88C143.43 156.88 132.55 142.3 130.68 138.56H130.25V153.86H106.98V0H106.99ZM187.7 98.26C187.7 69.96 173.78 58.83 159.56 58.83C141.25 58.83 130.69 79 130.69 98.26C130.69 115.19 138.98 137.48 159.56 137.48C173.78 137.48 187.7 121.87 187.7 98.26Z" fill="black"/>
<path d="M222.05 0H246.61V23.27H222.05V0ZM222.05 42.45H246.61V153.85H222.05V42.45Z" fill="black"/>
<path d="M95.11 153.85H70.98V138.34H70.55C64.28 150.76 54.27 156.87 41.59 156.87C11.61 156.87 0 132.59 0 113.13V42.45H24.56V110.76C24.56 120.53 28.7 137.48 46.44 137.48C64.18 137.48 70.54 122.59 70.54 107.1V42.45H95.1V153.85H95.11Z" fill="black"/>
</svg>
